<mxfile host="app.diagrams.net" modified="2023-04-09T16:21:42.801Z" agent="Mozilla/5.0 (Macintosh; Intel Mac OS X 10_15_7) AppleWebKit/537.36 (KHTML, like Gecko) Chrome/112.0.0.0 Safari/537.36" etag="g5n8CF9VNuMGHWfWal-G" version="21.1.5" type="device">
  <diagram id="R2lEEEUBdFMjLlhIrx00" name="Page-1">
    <mxGraphModel dx="2524" dy="1814" grid="1" gridSize="10" guides="1" tooltips="1" connect="1" arrows="1" fold="1" page="1" pageScale="1" pageWidth="850" pageHeight="1100" math="0" shadow="0" extFonts="Permanent Marker^https://fonts.googleapis.com/css?family=Permanent+Marker">
      <root>
        <mxCell id="0" />
        <mxCell id="1" parent="0" />
        <mxCell id="yi3LNq6UX8K5NBdRygYQ-1" value="Brands" style="rounded=0;whiteSpace=wrap;html=1;" parent="1" vertex="1">
          <mxGeometry x="-110" y="-450" width="120" height="60" as="geometry" />
        </mxCell>
        <mxCell id="yi3LNq6UX8K5NBdRygYQ-2" value="Stores" style="rounded=0;whiteSpace=wrap;html=1;" parent="1" vertex="1">
          <mxGeometry x="629" y="-290" width="120" height="60" as="geometry" />
        </mxCell>
        <mxCell id="yi3LNq6UX8K5NBdRygYQ-3" value="ClothingItems" style="rounded=0;whiteSpace=wrap;html=1;" parent="1" vertex="1">
          <mxGeometry x="162" y="-290" width="120" height="60" as="geometry" />
        </mxCell>
        <mxCell id="yi3LNq6UX8K5NBdRygYQ-4" value="OrderDetails" style="rounded=0;whiteSpace=wrap;html=1;" parent="1" vertex="1">
          <mxGeometry x="162" y="-590" width="120" height="60" as="geometry" />
        </mxCell>
        <mxCell id="yi3LNq6UX8K5NBdRygYQ-10" value="Has" style="rhombus;whiteSpace=wrap;html=1;" parent="1" vertex="1">
          <mxGeometry x="-90" y="-300" width="80" height="80" as="geometry" />
        </mxCell>
        <mxCell id="yi3LNq6UX8K5NBdRygYQ-11" value="Gets" style="rhombus;whiteSpace=wrap;html=1;" parent="1" vertex="1">
          <mxGeometry x="-90" y="-600" width="80" height="80" as="geometry" />
        </mxCell>
        <mxCell id="yi3LNq6UX8K5NBdRygYQ-14" value="" style="endArrow=none;html=1;rounded=0;entryX=0;entryY=0.5;entryDx=0;entryDy=0;exitX=1;exitY=0.5;exitDx=0;exitDy=0;" parent="1" source="yi3LNq6UX8K5NBdRygYQ-11" target="yi3LNq6UX8K5NBdRygYQ-4" edge="1">
          <mxGeometry width="50" height="50" relative="1" as="geometry">
            <mxPoint x="70" y="-460" as="sourcePoint" />
            <mxPoint x="120" y="-510" as="targetPoint" />
          </mxGeometry>
        </mxCell>
        <mxCell id="yi3LNq6UX8K5NBdRygYQ-95" value="&lt;font style=&quot;font-size: 14px;&quot;&gt;N&lt;/font&gt;" style="edgeLabel;html=1;align=center;verticalAlign=middle;resizable=0;points=[];" parent="yi3LNq6UX8K5NBdRygYQ-14" vertex="1" connectable="0">
          <mxGeometry x="0.8023" y="1" relative="1" as="geometry">
            <mxPoint as="offset" />
          </mxGeometry>
        </mxCell>
        <mxCell id="yi3LNq6UX8K5NBdRygYQ-15" value="" style="endArrow=none;html=1;rounded=0;exitX=0.5;exitY=0;exitDx=0;exitDy=0;" parent="1" source="yi3LNq6UX8K5NBdRygYQ-1" target="yi3LNq6UX8K5NBdRygYQ-11" edge="1">
          <mxGeometry width="50" height="50" relative="1" as="geometry">
            <mxPoint x="-40" y="-480" as="sourcePoint" />
            <mxPoint x="10" y="-530" as="targetPoint" />
          </mxGeometry>
        </mxCell>
        <mxCell id="yi3LNq6UX8K5NBdRygYQ-96" value="&lt;font style=&quot;font-size: 14px;&quot;&gt;1&lt;/font&gt;" style="edgeLabel;html=1;align=center;verticalAlign=middle;resizable=0;points=[];" parent="yi3LNq6UX8K5NBdRygYQ-15" vertex="1" connectable="0">
          <mxGeometry x="-0.5143" relative="1" as="geometry">
            <mxPoint as="offset" />
          </mxGeometry>
        </mxCell>
        <mxCell id="yi3LNq6UX8K5NBdRygYQ-16" value="" style="endArrow=none;html=1;rounded=0;entryX=0.5;entryY=1;entryDx=0;entryDy=0;exitX=0.5;exitY=0;exitDx=0;exitDy=0;" parent="1" source="yi3LNq6UX8K5NBdRygYQ-10" target="yi3LNq6UX8K5NBdRygYQ-1" edge="1">
          <mxGeometry width="50" height="50" relative="1" as="geometry">
            <mxPoint x="-50" y="-310" as="sourcePoint" />
            <mxPoint x="-50" y="-390" as="targetPoint" />
          </mxGeometry>
        </mxCell>
        <mxCell id="yi3LNq6UX8K5NBdRygYQ-84" value="&lt;font style=&quot;font-size: 14px;&quot;&gt;1&lt;/font&gt;" style="edgeLabel;html=1;align=center;verticalAlign=middle;resizable=0;points=[];" parent="yi3LNq6UX8K5NBdRygYQ-16" vertex="1" connectable="0">
          <mxGeometry x="0.6889" y="2" relative="1" as="geometry">
            <mxPoint as="offset" />
          </mxGeometry>
        </mxCell>
        <mxCell id="yi3LNq6UX8K5NBdRygYQ-19" value="" style="endArrow=none;html=1;rounded=0;exitX=1;exitY=0.5;exitDx=0;exitDy=0;entryX=0;entryY=0.5;entryDx=0;entryDy=0;" parent="1" source="yi3LNq6UX8K5NBdRygYQ-10" target="yi3LNq6UX8K5NBdRygYQ-3" edge="1">
          <mxGeometry width="50" height="50" relative="1" as="geometry">
            <mxPoint x="-10" y="-260.5" as="sourcePoint" />
            <mxPoint x="160" y="-260" as="targetPoint" />
          </mxGeometry>
        </mxCell>
        <mxCell id="yi3LNq6UX8K5NBdRygYQ-85" value="&lt;font style=&quot;font-size: 14px;&quot;&gt;N&lt;/font&gt;" style="edgeLabel;html=1;align=center;verticalAlign=middle;resizable=0;points=[];" parent="yi3LNq6UX8K5NBdRygYQ-19" vertex="1" connectable="0">
          <mxGeometry x="0.8372" y="-1" relative="1" as="geometry">
            <mxPoint as="offset" />
          </mxGeometry>
        </mxCell>
        <mxCell id="yi3LNq6UX8K5NBdRygYQ-20" value="" style="endArrow=none;html=1;rounded=0;exitX=1;exitY=0.5;exitDx=0;exitDy=0;entryX=0;entryY=0.5;entryDx=0;entryDy=0;" parent="1" source="yi3LNq6UX8K5NBdRygYQ-22" target="yi3LNq6UX8K5NBdRygYQ-2" edge="1">
          <mxGeometry width="50" height="50" relative="1" as="geometry">
            <mxPoint x="410" y="-270" as="sourcePoint" />
            <mxPoint x="511" y="-370" as="targetPoint" />
          </mxGeometry>
        </mxCell>
        <mxCell id="yi3LNq6UX8K5NBdRygYQ-88" value="&lt;font style=&quot;font-size: 14px;&quot;&gt;1&lt;/font&gt;" style="edgeLabel;html=1;align=center;verticalAlign=middle;resizable=0;points=[];" parent="yi3LNq6UX8K5NBdRygYQ-20" vertex="1" connectable="0">
          <mxGeometry x="0.7097" relative="1" as="geometry">
            <mxPoint as="offset" />
          </mxGeometry>
        </mxCell>
        <mxCell id="yi3LNq6UX8K5NBdRygYQ-21" value="" style="endArrow=none;html=1;rounded=0;exitX=1;exitY=0.5;exitDx=0;exitDy=0;entryX=0;entryY=0.5;entryDx=0;entryDy=0;" parent="1" source="yi3LNq6UX8K5NBdRygYQ-3" target="yi3LNq6UX8K5NBdRygYQ-22" edge="1">
          <mxGeometry width="50" height="50" relative="1" as="geometry">
            <mxPoint x="300" y="-260.5" as="sourcePoint" />
            <mxPoint x="330" y="-270" as="targetPoint" />
          </mxGeometry>
        </mxCell>
        <mxCell id="yi3LNq6UX8K5NBdRygYQ-89" value="&lt;font style=&quot;font-size: 14px;&quot;&gt;N&lt;/font&gt;" style="edgeLabel;html=1;align=center;verticalAlign=middle;resizable=0;points=[];" parent="yi3LNq6UX8K5NBdRygYQ-21" vertex="1" connectable="0">
          <mxGeometry x="-0.7203" y="1" relative="1" as="geometry">
            <mxPoint as="offset" />
          </mxGeometry>
        </mxCell>
        <mxCell id="yi3LNq6UX8K5NBdRygYQ-22" value="Sells" style="rhombus;whiteSpace=wrap;html=1;" parent="1" vertex="1">
          <mxGeometry x="425" y="-300" width="80" height="80" as="geometry" />
        </mxCell>
        <mxCell id="yi3LNq6UX8K5NBdRygYQ-24" value="" style="endArrow=none;html=1;rounded=0;exitX=0.5;exitY=0;exitDx=0;exitDy=0;entryX=0.5;entryY=1;entryDx=0;entryDy=0;" parent="1" source="yi3LNq6UX8K5NBdRygYQ-92" target="yi3LNq6UX8K5NBdRygYQ-4" edge="1">
          <mxGeometry width="50" height="50" relative="1" as="geometry">
            <mxPoint x="222" y="-460" as="sourcePoint" />
            <mxPoint x="260" y="-510" as="targetPoint" />
          </mxGeometry>
        </mxCell>
        <mxCell id="yi3LNq6UX8K5NBdRygYQ-97" value="&lt;font style=&quot;font-size: 14px;&quot;&gt;N&lt;/font&gt;" style="edgeLabel;html=1;align=center;verticalAlign=middle;resizable=0;points=[];" parent="yi3LNq6UX8K5NBdRygYQ-24" vertex="1" connectable="0">
          <mxGeometry x="0.5143" y="-1" relative="1" as="geometry">
            <mxPoint as="offset" />
          </mxGeometry>
        </mxCell>
        <mxCell id="yi3LNq6UX8K5NBdRygYQ-25" value="" style="endArrow=none;html=1;rounded=0;exitX=0.5;exitY=0;exitDx=0;exitDy=0;entryX=0.5;entryY=1;entryDx=0;entryDy=0;" parent="1" source="yi3LNq6UX8K5NBdRygYQ-3" target="yi3LNq6UX8K5NBdRygYQ-92" edge="1">
          <mxGeometry width="50" height="50" relative="1" as="geometry">
            <mxPoint x="221.5" y="-310" as="sourcePoint" />
            <mxPoint x="222" y="-380" as="targetPoint" />
          </mxGeometry>
        </mxCell>
        <mxCell id="yi3LNq6UX8K5NBdRygYQ-98" value="&lt;font style=&quot;font-size: 14px;&quot;&gt;1&lt;/font&gt;" style="edgeLabel;html=1;align=center;verticalAlign=middle;resizable=0;points=[];" parent="yi3LNq6UX8K5NBdRygYQ-25" vertex="1" connectable="0">
          <mxGeometry x="-0.6" relative="1" as="geometry">
            <mxPoint as="offset" />
          </mxGeometry>
        </mxCell>
        <mxCell id="yi3LNq6UX8K5NBdRygYQ-31" value="" style="group" parent="1" vertex="1" connectable="0">
          <mxGeometry x="22" y="-710" width="390" height="120" as="geometry" />
        </mxCell>
        <mxCell id="yi3LNq6UX8K5NBdRygYQ-26" value="&lt;u&gt;OrderDetailID&lt;/u&gt;" style="ellipse;whiteSpace=wrap;html=1;" parent="yi3LNq6UX8K5NBdRygYQ-31" vertex="1">
          <mxGeometry y="70" width="90" height="50" as="geometry" />
        </mxCell>
        <mxCell id="yi3LNq6UX8K5NBdRygYQ-27" value="BrandID" style="ellipse;whiteSpace=wrap;html=1;" parent="yi3LNq6UX8K5NBdRygYQ-31" vertex="1">
          <mxGeometry x="260" y="10" width="90" height="50" as="geometry" />
        </mxCell>
        <mxCell id="yi3LNq6UX8K5NBdRygYQ-28" value="UserName" style="ellipse;whiteSpace=wrap;html=1;" parent="yi3LNq6UX8K5NBdRygYQ-31" vertex="1">
          <mxGeometry x="50" y="10" width="90" height="50" as="geometry" />
        </mxCell>
        <mxCell id="yi3LNq6UX8K5NBdRygYQ-29" value="ItemID" style="ellipse;whiteSpace=wrap;html=1;" parent="yi3LNq6UX8K5NBdRygYQ-31" vertex="1">
          <mxGeometry x="313" y="70" width="90" height="50" as="geometry" />
        </mxCell>
        <mxCell id="yi3LNq6UX8K5NBdRygYQ-30" value="Total" style="ellipse;whiteSpace=wrap;html=1;" parent="yi3LNq6UX8K5NBdRygYQ-31" vertex="1">
          <mxGeometry x="155" width="90" height="50" as="geometry" />
        </mxCell>
        <mxCell id="yi3LNq6UX8K5NBdRygYQ-54" value="&lt;u&gt;BrandID&lt;/u&gt;" style="ellipse;whiteSpace=wrap;html=1;" parent="1" vertex="1">
          <mxGeometry x="-230" y="-530" width="90" height="50" as="geometry" />
        </mxCell>
        <mxCell id="yi3LNq6UX8K5NBdRygYQ-55" value="BrandName" style="ellipse;whiteSpace=wrap;html=1;" parent="1" vertex="1">
          <mxGeometry x="-290" y="-480" width="90" height="50" as="geometry" />
        </mxCell>
        <mxCell id="yi3LNq6UX8K5NBdRygYQ-56" value="BrandDescription" style="ellipse;whiteSpace=wrap;html=1;" parent="1" vertex="1">
          <mxGeometry x="-300" y="-420" width="110" height="60" as="geometry" />
        </mxCell>
        <mxCell id="yi3LNq6UX8K5NBdRygYQ-57" value="BrandCategory" style="ellipse;whiteSpace=wrap;html=1;" parent="1" vertex="1">
          <mxGeometry x="-203" y="-370" width="90" height="50" as="geometry" />
        </mxCell>
        <mxCell id="yi3LNq6UX8K5NBdRygYQ-58" value="" style="endArrow=none;html=1;rounded=0;entryX=0;entryY=0.5;entryDx=0;entryDy=0;exitX=0.5;exitY=0;exitDx=0;exitDy=0;" parent="1" source="yi3LNq6UX8K5NBdRygYQ-4" target="yi3LNq6UX8K5NBdRygYQ-29" edge="1">
          <mxGeometry width="50" height="50" relative="1" as="geometry">
            <mxPoint x="210" y="-630" as="sourcePoint" />
            <mxPoint x="410" y="-530" as="targetPoint" />
          </mxGeometry>
        </mxCell>
        <mxCell id="yi3LNq6UX8K5NBdRygYQ-59" value="" style="endArrow=none;html=1;rounded=0;entryX=0.5;entryY=1;entryDx=0;entryDy=0;exitX=0.5;exitY=0;exitDx=0;exitDy=0;" parent="1" source="yi3LNq6UX8K5NBdRygYQ-4" target="yi3LNq6UX8K5NBdRygYQ-27" edge="1">
          <mxGeometry width="50" height="50" relative="1" as="geometry">
            <mxPoint x="230" y="-630" as="sourcePoint" />
            <mxPoint x="220" y="-650" as="targetPoint" />
          </mxGeometry>
        </mxCell>
        <mxCell id="yi3LNq6UX8K5NBdRygYQ-60" value="" style="endArrow=none;html=1;rounded=0;entryX=0.5;entryY=1;entryDx=0;entryDy=0;exitX=0.5;exitY=0;exitDx=0;exitDy=0;" parent="1" source="yi3LNq6UX8K5NBdRygYQ-4" target="yi3LNq6UX8K5NBdRygYQ-30" edge="1">
          <mxGeometry width="50" height="50" relative="1" as="geometry">
            <mxPoint x="140" y="-590" as="sourcePoint" />
            <mxPoint x="190" y="-640" as="targetPoint" />
          </mxGeometry>
        </mxCell>
        <mxCell id="yi3LNq6UX8K5NBdRygYQ-61" value="" style="endArrow=none;html=1;rounded=0;entryX=0.5;entryY=1;entryDx=0;entryDy=0;exitX=0.5;exitY=0;exitDx=0;exitDy=0;" parent="1" source="yi3LNq6UX8K5NBdRygYQ-4" target="yi3LNq6UX8K5NBdRygYQ-28" edge="1">
          <mxGeometry width="50" height="50" relative="1" as="geometry">
            <mxPoint x="140" y="-580" as="sourcePoint" />
            <mxPoint x="190" y="-630" as="targetPoint" />
          </mxGeometry>
        </mxCell>
        <mxCell id="yi3LNq6UX8K5NBdRygYQ-62" value="" style="endArrow=none;html=1;rounded=0;entryX=0.5;entryY=0;entryDx=0;entryDy=0;exitX=1;exitY=0.5;exitDx=0;exitDy=0;" parent="1" source="yi3LNq6UX8K5NBdRygYQ-26" target="yi3LNq6UX8K5NBdRygYQ-4" edge="1">
          <mxGeometry width="50" height="50" relative="1" as="geometry">
            <mxPoint x="130" y="-590" as="sourcePoint" />
            <mxPoint x="210" y="-620" as="targetPoint" />
          </mxGeometry>
        </mxCell>
        <mxCell id="yi3LNq6UX8K5NBdRygYQ-63" value="" style="endArrow=none;html=1;rounded=1;entryX=0.5;entryY=1;entryDx=0;entryDy=0;exitX=0;exitY=0.5;exitDx=0;exitDy=0;" parent="1" source="yi3LNq6UX8K5NBdRygYQ-1" target="yi3LNq6UX8K5NBdRygYQ-54" edge="1">
          <mxGeometry width="50" height="50" relative="1" as="geometry">
            <mxPoint x="-130" y="-440" as="sourcePoint" />
            <mxPoint x="-80" y="-490" as="targetPoint" />
          </mxGeometry>
        </mxCell>
        <mxCell id="yi3LNq6UX8K5NBdRygYQ-64" value="" style="endArrow=none;html=1;rounded=0;exitX=1;exitY=0.5;exitDx=0;exitDy=0;entryX=0;entryY=0.5;entryDx=0;entryDy=0;" parent="1" source="yi3LNq6UX8K5NBdRygYQ-55" target="yi3LNq6UX8K5NBdRygYQ-1" edge="1">
          <mxGeometry width="50" height="50" relative="1" as="geometry">
            <mxPoint x="-130" y="-450" as="sourcePoint" />
            <mxPoint x="-80" y="-500" as="targetPoint" />
          </mxGeometry>
        </mxCell>
        <mxCell id="yi3LNq6UX8K5NBdRygYQ-65" value="" style="endArrow=none;html=1;rounded=0;exitX=1;exitY=0.5;exitDx=0;exitDy=0;entryX=0;entryY=0.5;entryDx=0;entryDy=0;" parent="1" source="yi3LNq6UX8K5NBdRygYQ-56" target="yi3LNq6UX8K5NBdRygYQ-1" edge="1">
          <mxGeometry width="50" height="50" relative="1" as="geometry">
            <mxPoint x="-140" y="-455" as="sourcePoint" />
            <mxPoint x="-69.28932188134524" y="-505" as="targetPoint" />
          </mxGeometry>
        </mxCell>
        <mxCell id="yi3LNq6UX8K5NBdRygYQ-66" value="" style="endArrow=none;html=1;rounded=0;exitX=0.5;exitY=0;exitDx=0;exitDy=0;" parent="1" source="yi3LNq6UX8K5NBdRygYQ-57" edge="1">
          <mxGeometry width="50" height="50" relative="1" as="geometry">
            <mxPoint x="-200" y="-590" as="sourcePoint" />
            <mxPoint x="-110" y="-420" as="targetPoint" />
          </mxGeometry>
        </mxCell>
        <mxCell id="yi3LNq6UX8K5NBdRygYQ-68" value="" style="endArrow=none;html=1;rounded=0;entryX=0.5;entryY=1;entryDx=0;entryDy=0;exitX=0.5;exitY=0;exitDx=0;exitDy=0;" parent="1" source="yi3LNq6UX8K5NBdRygYQ-45" target="yi3LNq6UX8K5NBdRygYQ-3" edge="1">
          <mxGeometry width="50" height="50" relative="1" as="geometry">
            <mxPoint x="250" y="-150" as="sourcePoint" />
            <mxPoint x="300" y="-200" as="targetPoint" />
          </mxGeometry>
        </mxCell>
        <mxCell id="yi3LNq6UX8K5NBdRygYQ-69" value="" style="endArrow=none;html=1;rounded=0;exitX=1;exitY=0.5;exitDx=0;exitDy=0;entryX=0.5;entryY=1;entryDx=0;entryDy=0;" parent="1" source="yi3LNq6UX8K5NBdRygYQ-47" target="yi3LNq6UX8K5NBdRygYQ-3" edge="1">
          <mxGeometry width="50" height="50" relative="1" as="geometry">
            <mxPoint x="330" y="-260" as="sourcePoint" />
            <mxPoint x="380" y="-310" as="targetPoint" />
          </mxGeometry>
        </mxCell>
        <mxCell id="yi3LNq6UX8K5NBdRygYQ-70" value="" style="endArrow=none;html=1;rounded=0;entryX=0.5;entryY=1;entryDx=0;entryDy=0;exitX=0.5;exitY=0;exitDx=0;exitDy=0;" parent="1" source="yi3LNq6UX8K5NBdRygYQ-44" target="yi3LNq6UX8K5NBdRygYQ-3" edge="1">
          <mxGeometry width="50" height="50" relative="1" as="geometry">
            <mxPoint x="230" y="-150" as="sourcePoint" />
            <mxPoint x="280" y="-200" as="targetPoint" />
          </mxGeometry>
        </mxCell>
        <mxCell id="yi3LNq6UX8K5NBdRygYQ-71" value="" style="endArrow=none;html=1;rounded=0;entryX=0.5;entryY=1;entryDx=0;entryDy=0;exitX=0.5;exitY=0;exitDx=0;exitDy=0;" parent="1" source="yi3LNq6UX8K5NBdRygYQ-48" target="yi3LNq6UX8K5NBdRygYQ-3" edge="1">
          <mxGeometry width="50" height="50" relative="1" as="geometry">
            <mxPoint x="210" y="-40" as="sourcePoint" />
            <mxPoint x="260" y="-90" as="targetPoint" />
          </mxGeometry>
        </mxCell>
        <mxCell id="yi3LNq6UX8K5NBdRygYQ-72" value="" style="endArrow=none;html=1;rounded=0;entryX=0.5;entryY=1;entryDx=0;entryDy=0;exitX=1;exitY=0.5;exitDx=0;exitDy=0;" parent="1" source="yi3LNq6UX8K5NBdRygYQ-42" target="yi3LNq6UX8K5NBdRygYQ-3" edge="1">
          <mxGeometry width="50" height="50" relative="1" as="geometry">
            <mxPoint x="180" y="-50" as="sourcePoint" />
            <mxPoint x="230" y="-100" as="targetPoint" />
          </mxGeometry>
        </mxCell>
        <mxCell id="yi3LNq6UX8K5NBdRygYQ-73" value="" style="group" parent="1" vertex="1" connectable="0">
          <mxGeometry x="70" y="-230" width="390" height="154" as="geometry" />
        </mxCell>
        <mxCell id="yi3LNq6UX8K5NBdRygYQ-42" value="&lt;u&gt;ItemID&lt;/u&gt;" style="ellipse;whiteSpace=wrap;html=1;" parent="yi3LNq6UX8K5NBdRygYQ-73" vertex="1">
          <mxGeometry width="90" height="50" as="geometry" />
        </mxCell>
        <mxCell id="yi3LNq6UX8K5NBdRygYQ-44" value="ItemDescription" style="ellipse;whiteSpace=wrap;html=1;" parent="yi3LNq6UX8K5NBdRygYQ-73" vertex="1">
          <mxGeometry x="107" y="90" width="90" height="50" as="geometry" />
        </mxCell>
        <mxCell id="yi3LNq6UX8K5NBdRygYQ-45" value="Price" style="ellipse;whiteSpace=wrap;html=1;" parent="yi3LNq6UX8K5NBdRygYQ-73" vertex="1">
          <mxGeometry x="180" y="54" width="90" height="50" as="geometry" />
        </mxCell>
        <mxCell id="yi3LNq6UX8K5NBdRygYQ-48" value="ItemName" style="ellipse;whiteSpace=wrap;html=1;" parent="yi3LNq6UX8K5NBdRygYQ-73" vertex="1">
          <mxGeometry x="37" y="54" width="90" height="50" as="geometry" />
        </mxCell>
        <mxCell id="yi3LNq6UX8K5NBdRygYQ-47" value="StoreID" style="ellipse;whiteSpace=wrap;html=1;" parent="yi3LNq6UX8K5NBdRygYQ-73" vertex="1">
          <mxGeometry x="230" y="4" width="90" height="50" as="geometry" />
        </mxCell>
        <mxCell id="yi3LNq6UX8K5NBdRygYQ-74" value="" style="endArrow=none;html=1;rounded=0;entryX=1;entryY=0.5;entryDx=0;entryDy=0;exitX=0.5;exitY=0;exitDx=0;exitDy=0;" parent="1" source="yi3LNq6UX8K5NBdRygYQ-2" target="yi3LNq6UX8K5NBdRygYQ-49" edge="1">
          <mxGeometry width="50" height="50" relative="1" as="geometry">
            <mxPoint x="779" y="-220" as="sourcePoint" />
            <mxPoint x="829" y="-270" as="targetPoint" />
          </mxGeometry>
        </mxCell>
        <mxCell id="yi3LNq6UX8K5NBdRygYQ-75" value="" style="endArrow=none;html=1;rounded=0;entryX=0.5;entryY=1;entryDx=0;entryDy=0;exitX=0.5;exitY=0;exitDx=0;exitDy=0;" parent="1" source="yi3LNq6UX8K5NBdRygYQ-2" target="yi3LNq6UX8K5NBdRygYQ-50" edge="1">
          <mxGeometry width="50" height="50" relative="1" as="geometry">
            <mxPoint x="759" y="-240" as="sourcePoint" />
            <mxPoint x="809" y="-290" as="targetPoint" />
          </mxGeometry>
        </mxCell>
        <mxCell id="yi3LNq6UX8K5NBdRygYQ-76" value="" style="endArrow=none;html=1;rounded=0;entryX=0.5;entryY=1;entryDx=0;entryDy=0;exitX=0.5;exitY=0;exitDx=0;exitDy=0;" parent="1" source="yi3LNq6UX8K5NBdRygYQ-2" target="yi3LNq6UX8K5NBdRygYQ-51" edge="1">
          <mxGeometry width="50" height="50" relative="1" as="geometry">
            <mxPoint x="719" y="-230" as="sourcePoint" />
            <mxPoint x="769" y="-280" as="targetPoint" />
          </mxGeometry>
        </mxCell>
        <mxCell id="yi3LNq6UX8K5NBdRygYQ-77" value="" style="endArrow=none;html=1;rounded=0;entryX=0;entryY=0.5;entryDx=0;entryDy=0;exitX=0.5;exitY=0;exitDx=0;exitDy=0;" parent="1" source="yi3LNq6UX8K5NBdRygYQ-2" target="yi3LNq6UX8K5NBdRygYQ-52" edge="1">
          <mxGeometry width="50" height="50" relative="1" as="geometry">
            <mxPoint x="799" y="-220" as="sourcePoint" />
            <mxPoint x="849" y="-270" as="targetPoint" />
          </mxGeometry>
        </mxCell>
        <mxCell id="yi3LNq6UX8K5NBdRygYQ-82" value="" style="group" parent="1" vertex="1" connectable="0">
          <mxGeometry x="514" y="-400" width="340" height="100" as="geometry" />
        </mxCell>
        <mxCell id="yi3LNq6UX8K5NBdRygYQ-49" value="&lt;u&gt;StoreID&lt;/u&gt;" style="ellipse;whiteSpace=wrap;html=1;" parent="yi3LNq6UX8K5NBdRygYQ-82" vertex="1">
          <mxGeometry x="9" y="50" width="90" height="50" as="geometry" />
        </mxCell>
        <mxCell id="yi3LNq6UX8K5NBdRygYQ-50" value="StoreName" style="ellipse;whiteSpace=wrap;html=1;" parent="yi3LNq6UX8K5NBdRygYQ-82" vertex="1">
          <mxGeometry x="89" y="5" width="90" height="45" as="geometry" />
        </mxCell>
        <mxCell id="yi3LNq6UX8K5NBdRygYQ-51" value="StoreAddress" style="ellipse;whiteSpace=wrap;html=1;" parent="yi3LNq6UX8K5NBdRygYQ-82" vertex="1">
          <mxGeometry x="189" width="90" height="50" as="geometry" />
        </mxCell>
        <mxCell id="yi3LNq6UX8K5NBdRygYQ-52" value="StoreCity" style="ellipse;whiteSpace=wrap;html=1;" parent="yi3LNq6UX8K5NBdRygYQ-82" vertex="1">
          <mxGeometry x="259" y="50" width="90" height="50" as="geometry" />
        </mxCell>
        <mxCell id="yi3LNq6UX8K5NBdRygYQ-92" value="Includes" style="rhombus;whiteSpace=wrap;html=1;" parent="1" vertex="1">
          <mxGeometry x="182" y="-460" width="80" height="80" as="geometry" />
        </mxCell>
      </root>
    </mxGraphModel>
  </diagram>
</mxfile>
